<?xml version="1.0" encoding="utf-8"?>
<!-- Generator: Adobe Illustrator 23.1.0, SVG Export Plug-In . SVG Version: 6.00 Build 0)  -->
<svg version="1.1" baseProfile="tiny" id="Livello_1"
	 xmlns="http://www.w3.org/2000/svg" xmlns:xlink="http://www.w3.org/1999/xlink" x="0px" y="0px" viewBox="0 0 141.74 141.74"
	 xml:space="preserve">
<path id="XMLID_1695_" fill="#2F2F30" d="M70.87,141.74L70.87,141.74C31.73,141.74,0,110.01,0,70.87l0,0C0,31.73,31.73,0,70.87,0
	l0,0c39.14,0,70.87,31.73,70.87,70.87l0,0C141.73,110.01,110.01,141.74,70.87,141.74z"/>
<path id="XMLID_1694_" fill="#FFFFFF" d="M60.07,113.7h17.24V70.5h12.03l1.27-14.45H77.28c0,0,0-5.4,0-8.23
	c0-3.43,0.67-4.77,3.98-4.77c2.64,0,9.35,0,9.35,0V28.04c0,0-9.83,0-11.95,0c-12.85,0-18.62,5.66-18.62,16.46
	c0,9.42,0,11.54,0,11.54h-8.97v14.63h8.97v43.01h0.03V113.7z"/>
</svg>
