<?xml version="1.0" encoding="utf-8"?>
<!-- Generator: Adobe Illustrator 23.1.0, SVG Export Plug-In . SVG Version: 6.00 Build 0)  -->
<svg version="1.1" baseProfile="tiny" id="Livello_1"
	 xmlns="http://www.w3.org/2000/svg" xmlns:xlink="http://www.w3.org/1999/xlink" x="0px" y="0px" viewBox="0 0 141.74 141.74"
	 xml:space="preserve">
<path id="XMLID_1692_" fill="#2F2F30" d="M70.87,141.74L70.87,141.74C31.73,141.74,0,110.01,0,70.87l0,0C0,31.73,31.73,0,70.87,0
	l0,0c39.14,0,70.87,31.73,70.87,70.87l0,0C141.73,110.01,110.01,141.74,70.87,141.74z"/>
<path id="XMLID_1689_" fill="#FFFFFF" d="M70.87,39.03c10.39,0,11.62,0.04,15.71,0.22c3.8,0.19,5.85,0.82,7.22,1.34
	c1.82,0.71,3.09,1.56,4.47,2.9c1.38,1.38,2.2,2.64,2.9,4.47c0.52,1.38,1.15,3.43,1.34,7.22c0.19,4.1,0.22,5.33,0.22,15.71
	c0,10.39-0.04,11.62-0.22,15.71c-0.19,3.8-0.82,5.85-1.34,7.22c-0.71,1.82-1.56,3.09-2.9,4.47c-1.34,1.34-2.64,2.2-4.47,2.9
	c-1.38,0.52-3.43,1.15-7.22,1.34c-4.1,0.19-5.33,0.22-15.71,0.22s-11.62-0.04-15.71-0.22c-3.8-0.19-5.85-0.82-7.22-1.34
	c-1.82-0.71-3.09-1.56-4.47-2.9c-1.34-1.38-2.2-2.64-2.9-4.47c-0.52-1.38-1.15-3.43-1.34-7.22c-0.19-4.1-0.22-5.33-0.22-15.71
	c0-10.39,0.04-11.62,0.22-15.71c0.19-3.8,0.82-5.85,1.34-7.22c0.71-1.82,1.56-3.09,2.9-4.47c1.38-1.38,2.64-2.2,4.47-2.9
	c1.38-0.52,3.43-1.15,7.22-1.34C59.29,39.07,60.51,39.03,70.87,39.03 M70.87,32.03c-10.54,0-11.88,0.04-16.01,0.22
	c-4.13,0.19-6.96,0.86-9.42,1.82c-2.57,1.01-4.73,2.31-6.89,4.47s-3.5,4.32-4.47,6.89c-0.97,2.46-1.6,5.29-1.82,9.42
	c-0.19,4.13-0.22,5.47-0.22,16.01s0.04,11.88,0.22,16.01c0.19,4.13,0.86,6.96,1.82,9.42c1.01,2.57,2.31,4.73,4.47,6.89
	s4.32,3.5,6.89,4.47c2.46,0.97,5.29,1.6,9.42,1.82c4.13,0.19,5.47,0.22,16.01,0.22s11.88-0.04,16.01-0.22
	c4.13-0.19,6.96-0.86,9.42-1.82c2.57-1.01,4.73-2.31,6.89-4.47s3.5-4.32,4.47-6.89c0.97-2.46,1.6-5.29,1.82-9.42
	c0.19-4.13,0.22-5.47,0.22-16.01s-0.04-11.88-0.22-16.01c-0.19-4.13-0.86-6.96-1.82-9.42c-1.01-2.57-2.31-4.73-4.47-6.89
	s-4.32-3.5-6.89-4.47c-2.46-0.97-5.29-1.6-9.42-1.82C82.75,32.07,81.44,32.03,70.87,32.03"/>
<path id="XMLID_1686_" fill="#FFFFFF" d="M70.87,50.91c-11.02,0-19.96,8.94-19.96,19.96s8.94,19.96,19.96,19.96
	s19.96-8.94,19.96-19.96C90.83,59.85,81.89,50.91,70.87,50.91 M70.87,83.83c-7.15,0-12.96-5.81-12.96-12.96s5.81-12.96,12.96-12.96
	s12.96,5.81,12.96,12.96C83.83,78.02,78.02,83.83,70.87,83.83"/>
<path id="XMLID_1685_" fill="#FFFFFF" d="M96.26,50.13c0,2.57-2.09,4.65-4.65,4.65s-4.65-2.09-4.65-4.65c0-2.57,2.09-4.65,4.65-4.65
	S96.26,47.56,96.26,50.13"/>
</svg>
