<?xml version="1.0" encoding="utf-8"?>
<!-- Generator: Adobe Illustrator 23.1.0, SVG Export Plug-In . SVG Version: 6.00 Build 0)  -->
<svg version="1.1" baseProfile="tiny" id="Livello_1"
	 xmlns="http://www.w3.org/2000/svg" xmlns:xlink="http://www.w3.org/1999/xlink" x="0px" y="0px" viewBox="0 0 141.82 140.9"
	 overflow="visible" xml:space="preserve">
<path id="XMLID_1725_" fill="#2F2F30" d="M70.87,141.74L70.87,141.74C31.73,141.74,0,110.01,0,70.87l0,0C0,31.73,31.73,0,70.87,0
	l0,0c39.14,0,70.87,31.73,70.87,70.87l0,0C141.73,110.01,110.01,141.74,70.87,141.74z"/>
<path id="XMLID_1724_" fill="#FFFFFF" d="M33.11,94.59c6.85,4.39,15.01,6.96,23.76,6.96c28.75,0,45.02-24.28,44.05-46.1
	c3.02-2.2,5.66-4.92,7.75-8.01c-2.79,1.23-5.77,2.05-8.9,2.42c3.2-1.9,5.66-4.95,6.81-8.57c-2.98,1.79-6.29,3.05-9.83,3.76
	c-2.83-3.02-6.85-4.88-11.32-4.88c-10.02,0-17.35,9.35-15.08,19.03C57.47,58.57,46.07,52.39,38.44,43
	c-4.06,6.96-2.12,16.09,4.8,20.7c-2.53-0.07-4.92-0.78-7.04-1.94c-0.15,7.19,4.99,13.89,12.44,15.38c-2.2,0.6-4.58,0.74-7,0.26
	c1.97,6.14,7.71,10.65,14.49,10.76C49.53,93.29,41.34,95.56,33.11,94.59z"/>
</svg>
