<?xml version="1.0" encoding="utf-8"?>
<!-- Generator: Adobe Illustrator 23.1.0, SVG Export Plug-In . SVG Version: 6.00 Build 0)  -->
<svg version="1.1" baseProfile="tiny" id="Livello_1"
	 xmlns="http://www.w3.org/2000/svg" xmlns:xlink="http://www.w3.org/1999/xlink" x="0px" y="0px" viewBox="0 0 141.82 140.9"
	 xml:space="preserve">
<path id="XMLID_1858_" fill="#2F2F30" d="M70.87,141.74L70.87,141.74C31.73,141.74,0,110.01,0,70.87l0,0C0,31.73,31.73,0,70.87,0
	l0,0c39.14,0,70.87,31.73,70.87,70.87l0,0C141.73,110.01,110.01,141.74,70.87,141.74z"/>
<path id="XMLID_1846_" fill="#FFFFFF" d="M125.2,43.39c-1.3-4.92-5.14-8.79-10.02-10.09c-8.83-2.38-44.31-2.38-44.31-2.38
	s-35.49,0-44.31,2.38c-4.88,1.3-8.71,5.18-10.02,10.09c-2.38,8.9-2.38,27.48-2.38,27.48s0,18.58,2.38,27.48
	c1.3,4.92,5.14,8.79,10.02,10.09c8.86,2.38,44.31,2.38,44.31,2.38s35.49,0,44.31-2.38c4.88-1.3,8.71-5.18,10.02-10.09
	c2.38-8.9,2.38-27.48,2.38-27.48S127.58,52.29,125.2,43.39z"/>
<polygon id="XMLID_1730_" fill="#222221" points="59.29,87.74 59.29,54 88.93,70.87 "/>
</svg>
